#!OML:ASF I:\Random Stuff\random\construction\7_22_03\Session 2\subj1.ASF
:FULLY-SPECIFIED
:DEGREES
990
root -10.7115 17.6067 -5.80076 -366.766 70.2691 -384.958
lowerback 17.3227 -0.559304 -4.10151
upperback 8.03271 -1.0289 -2.82058
thorax -1.08651 -0.39377 -0.471702
lowerneck -15.184 2.76697 -0.701007
upperneck 40.6009 7.77459 -3.52015
head 17.7394 2.84376 0.0803613
rclavicle -1.74931e-014 -2.70347e-014
rhumerus -3.87926 35.5226 -91.6967
rradius 92.892
rwrist -22.4737
rhand -39.2343 6.52737
rfingers 7.12502
rthumb -12.2296 -23.0951
lclavicle -1.74931e-014 -2.70347e-014
lhumerus 25.1028 -20.7063 68.0496
lradius 27.1042
lwrist -12.6791
lhand -38.2792 85.2318
lfingers 7.12502
lthumb -11.3086 -474.907
rfemur -25.2722 9.74394 20.3771
rtibia 8.21907
rfoot -2.88191 -2.2933
rtoes -17.1553
lfemur -30.941 1.54441 -4.91522
ltibia 32.5148
lfoot -18.9955 11.5122
ltoes -20.9099
991
root -10.7091 17.6108 -5.80808 -366.399 70.2603 -384.516
lowerback 17.3999 -0.649376 -4.08342
upperback 8.01993 -1.14991 -2.93011
thorax -1.14051 -0.449464 -0.575213
lowerneck -15.323 2.82311 -0.645102
upperneck 40.5823 7.86302 -3.58695
head 17.7759 2.87273 0.059906
rclavicle 3.49861e-014 1.27222e-014
rhumerus -3.61124 35.1971 -90.9093
rradius 92.7615
rwrist -22.9242
rhand -38.4938 5.83303
rfingers 7.12502
rthumb -11.5155 -23.8306
lclavicle 3.49861e-014 1.27222e-014
lhumerus 24.9475 -20.6306 67.8439
lradius 27.1921
lwrist -12.784
lhand -38.181 85.486
lfingers 7.12502
lthumb -11.2138 -475.166
rfemur -25.2034 9.73969 20.2248
rtibia 8.17917
rfoot -2.84143 -2.26313
rtoes -17.5913
lfemur -30.8214 1.65012 -5.12875
ltibia 32.4124
lfoot -18.8444 11.4518
ltoes -21.6631
992
root -10.7055 17.6128 -5.8116 -366.035 70.2413 -384.132
lowerback 17.3222 -0.698613 -4.0658
upperback 8.05789 -1.20454 -3.02451
thorax -1.06105 -0.474617 -0.675913
lowerneck -15.4097 2.8414 -0.606378
upperneck 40.4431 7.89561 -3.70131
head 17.7302 2.8749 0.00834784
rclavicle -2.22639e-014 -1.74931e-014
rhumerus -3.43935 34.7081 -90.3646
rradius 92.7787
rwrist -23.5769
rhand -38.0986 5.01372
rfingers 7.12502
rthumb -11.1344 -24.6709
lclavicle -2.22639e-014 -1.74931e-014
lhumerus 24.9705 -20.9782 67.4356
lradius 27.3646
lwrist -12.1535
lhand -38.2469 85.4975
lfingers 7.12502
lthumb -11.2774 -475.174
rfemur -25.2026 9.75611 20.1125
rtibia 8.212
rfoot -2.84768 -2.22706
rtoes -18.0134
lfemur -30.7173 1.81725 -5.31294
ltibia 32.2454
lfoot -18.6351 11.3589
ltoes -22.4752
993
root -10.7024 17.6152 -5.81262 -365.58 70.2131 -383.742
lowerback 17.1446 -0.741941 -4.13476
upperback 8.08097 -1.2605 -3.07195
thorax -0.941973 -0.505103 -0.679186
lowerneck -15.4796 2.92235 -0.518333
upperneck 40.2308 8.03376 -3.91065
head 17.652 2.91535 -0.0754726
rclavicle 0 5.40694e-014
rhumerus -3.33508 34.3245 -90.0017
rradius 92.8613
rwrist -24.3864
rhand -37.9333 4.1489
rfingers 7.12502
rthumb -10.975 -25.5442
lclavicle 0 5.40694e-014
lhumerus 24.9283 -21.1675 67.1409
lradius 27.52
lwrist -11.6998
lhand -38.2042 85.5161
lfingers 7.12502
lthumb -11.2362 -475.195
rfemur -25.3072 9.78566 19.9933
rtibia 8.26549
rfoot -2.84255 -2.17586
rtoes -18.1828
lfemur -30.7025 1.98113 -5.49473
ltibia 32.0621
lfoot -18.418 11.3417
ltoes -22.9223
994
root -10.7006 17.6217 -5.81304 -365.044 70.2766 -383.29
lowerback 16.9774 -0.811977 -4.27188
upperback 8.08737 -1.36226 -3.08556
thorax -0.842091 -0.560626 -0.600807
lowerneck -15.6256 3.00298 -0.527666
upperneck 40.1271 8.1707 -3.99059
head 17.6418 2.9536 -0.0808023
rclavicle 1.74931e-014 7.95139e-015
rhumerus -3.35103 34.1121 -89.784
rradius 92.9137
rwrist -24.9921
rhand -37.5857 4.0144
rfingers 7.12502
rthumb -10.6396 -25.6962
lclavicle 1.74931e-014 7.95139e-015
lhumerus 24.8298 -21.2432 66.9016
lradius 27.6819
lwrist -11.5178
lhand -38.0437 85.3538
lfingers 7.12502
lthumb -11.0814 -475.041
rfemur -25.4199 9.7245 19.8408
rtibia 8.29175
rfoot -2.83391 -2.10702
rtoes -18.1545
lfemur -30.755 1.97967 -5.68513
ltibia 31.8996
lfoot -18.242 11.3697
ltoes -23.0764
995
root -10.6975 17.6296 -5.81376 -364.761 70.3953 -383.052
lowerback 16.874 -0.880185 -4.30467
upperback 8.10585 -1.44781 -3.0773
thorax -0.765535 -0.605296 -0.560619
lowerneck -15.804 3.01585 -0.591985
upperneck 40.093 8.20123 -3.98655
head 17.6668 2.95096 -0.0573088
rclavicle 9.54166e-015 1.74931e-014
rhumerus -3.56723 33.8838 -89.7652
rradius 93.0537
rwrist -25.2738
rhand -36.9513 4.39802
rfingers 7.12502
rthumb -10.0277 -25.3431
lclavicle 9.54166e-015 1.74931e-014
lhumerus 24.8 -21.5864 66.5765
lradius 27.8727
lwrist -11.0745
lhand -38.0042 83.8491
lfingers 7.12502
lthumb -11.0433 -473.539
rfemur -25.4525 9.60101 19.7656
rtibia 8.31543
rfoot -2.88274 -2.0584
rtoes -17.9291
lfemur -30.79 1.85424 -5.78411
ltibia 31.763
lfoot -18.1078 11.3865
ltoes -23.2333
996
root -10.6921 17.6332 -5.81482 -364.771 70.5062 -383.064
lowerback 16.8642 -0.937276 -4.25351
upperback 8.1066 -1.51358 -3.02548
thorax -0.75892 -0.638103 -0.523825
lowerneck -15.8978 3.04945 -0.523463
upperneck 39.9892 8.29224 -4.18216
head 17.6553 2.97024 -0.138378
rclavicle -2.06736e-014 1.90833e-014
rhumerus -4.00009 33.8042 -89.9009
rradius 93.4908
rwrist -25.4264
rhand -36.6117 4.37054
rfingers 7.12502
rthumb -9.70004 -25.3861
lclavicle -2.06736e-014 1.90833e-014
lhumerus 24.6163 -21.4628 66.7145
lradius 27.9336
lwrist -11.3991
lhand -38.1724 84.7457
lfingers 7.12502
lthumb -11.2056 -474.426
rfemur -25.4067 9.47391 19.7758
rtibia 8.33424
rfoot -2.97165 -2.04149
rtoes -17.7313
lfemur -30.7588 1.7184 -5.80804
ltibia 31.6512
lfoot -18.0547 11.4288
ltoes -23.254
997
root -10.6888 17.6323 -5.81556 -364.734 70.6179 -383.101
lowerback 16.8018 -0.979588 -4.19681
upperback 8.07821 -1.56 -2.9602
thorax -0.756206 -0.662273 -0.479668
lowerneck -15.9774 3.08704 -0.428318
upperneck 39.8941 8.36859 -4.34829
head 17.6436 2.99219 -0.213691
rclavicle 4.77083e-015 3.02153e-014
rhumerus -4.6521 33.8829 -90.1646
rradius 94.2266
rwrist -25.4531
rhand -36.5458 4.25084
rfingers 7.12502
rthumb -9.63644 -25.5087
lclavicle 4.77083e-015 3.02153e-014
lhumerus 24.3769 -21.0329 67.1685
lradius 27.9251
lwrist -12.1328
lhand -38.1578 83.9622
lfingers 7.12502
lthumb -11.1914 -473.644
rfemur -25.4534 9.34125 19.7742
rtibia 8.32528
rfoot -3.01922 -2.02905
rtoes -17.93
lfemur -30.8041 1.57741 -5.82365
ltibia 31.5723
lfoot -18.0991 11.4988
ltoes -23.0148
998
root -10.6875 17.6334 -5.81684 -364.629 70.7527 -383.132
lowerback 16.7232 -1.0201 -4.16375
upperback 8.01958 -1.60983 -2.87738
thorax -0.775868 -0.689361 -0.40318
lowerneck -16.0517 3.08409 -0.47031
upperneck 39.8522 8.35749 -4.32438
head 17.6345 2.98365 -0.195514
rclavicle -1.27222e-013 3.33958e-014
rhumerus -5.57893 34.075 -90.5731
rradius 95.1273
rwrist -25.1831
rhand -36.4188 4.22606
rfingers 7.12502
rthumb -9.5139 -25.5392
lclavicle -1.27222e-013 3.33958e-014
lhumerus 24.1931 -20.8154 67.5417
lradius 27.9461
lwrist -12.3928
lhand -38.2447 83.2744
lfingers 7.12502
lthumb -11.2753 -472.951
rfemur -25.5897 9.18249 19.7526
rtibia 8.32363
rfoot -3.03684 -2.02093
rtoes -18.1891
lfemur -30.9662 1.37722 -5.81581
ltibia 31.5245
lfoot -18.146 11.5579
ltoes -22.5543
999
root -10.683 17.636 -5.81844 -364.715 70.9053 -383.256
lowerback 16.8112 -1.06796 -4.11961
upperback 7.95916 -1.67537 -2.78038
thorax -0.883798 -0.721952 -0.312728
lowerneck -16.1388 3.07014 -0.567313
upperneck 39.8135 8.31857 -4.23143
head 17.6209 2.96464 -0.141435
rclavicle -7.95139e-014 -1.11319e-014
rhumerus -6.70819 34.4219 -91.0801
rradius 96.0744
rwrist -24.6178
rhand -36.5416 4.09973
rfingers 7.12502
rthumb -9.63239 -25.66
lclavicle -7.95139e-014 -1.11319e-014
lhumerus 24.0019 -20.7135 67.8249
lradius 28.0016
lwrist -12.469
lhand -38.2433 83.0065
lfingers 7.12502
lthumb -11.274 -472.684
rfemur -25.5963 9.00209 19.7734
rtibia 8.34667
rfoot -3.07953 -2.02269
rtoes -18.1338
lfemur -31.0338 1.16502 -5.78601
ltibia 31.4849
lfoot -18.19 11.5909
ltoes -21.9275
1000
root -10.6763 17.6371 -5.81694 -364.96 71.0402 -383.467
lowerback 16.9284 -1.11488 -4.07875
upperback 7.95453 -1.73508 -2.69197
thorax -0.94734 -0.751105 -0.230543
lowerneck -16.2951 3.09323 -0.599003
upperneck 39.7568 8.30982 -4.14196
head 17.6197 2.96431 -0.0931292
rclavicle -3.33958e-014 -1.59028e-014
rhumerus -7.86704 34.8131 -91.651
rradius 96.9782
rwrist -23.9481
rhand -36.808 4.3272
rfingers 7.12502
rthumb -9.88937 -25.4205
lclavicle -3.33958e-014 -1.59028e-014
lhumerus 23.845 -20.6452 67.9919
lradius 28.1508
lwrist -12.5011
lhand -38.1943 82.7952
lfingers 7.12502
lthumb -11.2266 -472.475
rfemur -25.4879 8.84202 19.8454
rtibia 8.34137
rfoot -3.13114 -2.02557
rtoes -17.8749
lfemur -30.9934 1.04529 -5.7483
ltibia 31.436
lfoot -18.2699 11.5671
ltoes -21.3071
1001
root -10.6711 17.6387 -5.81148 -365.104 71.178 -383.618
lowerback 16.9571 -1.14694 -4.10866
upperback 7.98216 -1.77785 -2.61481
thorax -0.928079 -0.774425 -0.12528
lowerneck -16.3877 3.17849 -0.531208
upperneck 39.6546 8.39231 -4.14213
head 17.5914 3.00571 -0.0871223
rclavicle 1.27222e-014 1.74931e-014
rhumerus -9.09582 35.0244 -92.3447
rradius 97.8186
rwrist -23.2335
rhand -36.9324 4.83242
rfingers 7.12502
rthumb -10.0094 -24.9096
lclavicle 1.27222e-014 1.74931e-014
lhumerus 23.7537 -20.5156 68.1523
lradius 28.3184
lwrist -12.639
lhand -38.2086 82.8731
lfingers 7.12502
lthumb -11.2405 -472.552
rfemur -25.435 8.68778 19.9048
rtibia 8.34168
rfoot -3.18143 -2.0204
rtoes -17.7385
lfemur -30.9933 0.986872 -5.72755
ltibia 31.3712
lfoot -18.3229 11.4864
ltoes -21.0348
1002
root -10.6679 17.6416 -5.80477 -365.058 71.3381 -383.617
lowerback 16.9914 -1.14964 -4.21466
upperback 7.98526 -1.79598 -2.53409
thorax -0.93508 -0.787176 0.022688
lowerneck -16.4159 3.23482 -0.496399
upperneck 39.5461 8.45909 -4.17816
head 17.5441 3.03411 -0.0960421
rclavicle 3.33958e-014 -4.29375e-014
rhumerus -10.2833 35.1053 -93.0005
rradius 98.4854
rwrist -22.4916
rhand -37.1919 5.12241
rfingers 7.12502
rthumb -10.2598 -24.6074
lclavicle 3.33958e-014 -4.29375e-014
lhumerus 23.6949 -20.4456 68.3491
lradius 28.4409
lwrist -12.8859
lhand -38.1614 83.0431
lfingers 7.12502
lthumb -11.1949 -472.724
rfemur -25.4821 8.51681 19.9088
rtibia 8.41911
rfoot -3.24126 -2.01561
rtoes -17.8415
lfemur -31.0509 0.927744 -5.75806
ltibia 31.2955
lfoot -18.3155 11.4123
ltoes -21.0382
1003
root -10.6654 17.6439 -5.79831 -365.003 71.4896 -383.604
lowerback 17.0445 -1.14027 -4.34338
upperback 7.99564 -1.80165 -2.4394
thorax -0.94293 -0.794408 0.196214
lowerneck -16.5137 3.21296 -0.595573
upperneck 39.5128 8.40627 -4.0728
head 17.5348 3.01046 -0.0387243
rclavicle 6.36111e-015 4.29375e-014
rhumerus -11.238 35.1963 -93.479
rradius 98.9142
rwrist -21.8784
rhand -37.4942 5.5545
rfingers 7.12502
rthumb -10.5514 -24.1607
lclavicle 6.36111e-015 4.29375e-014
lhumerus 23.6577 -20.486 68.5042
lradius 28.5453
lwrist -13.0452
lhand -38.1381 82.9571
lfingers 7.12502
lthumb -11.1725 -472.64
rfemur -25.5682 8.35513 19.9112
rtibia 8.56587
rfoot -3.32367 -2.01994
rtoes -18.122
lfemur -31.1031 0.830729 -5.7716
ltibia 31.2195
lfoot -18.3098 11.3433
ltoes -20.8738
1004
root -10.6632 17.6448 -5.79253 -365.157 71.6449 -383.808
lowerback 17.1072 -1.14573 -4.42422
upperback 8.02347 -1.81811 -2.32653
thorax -0.937971 -0.806333 0.363773
lowerneck -16.6899 3.17769 -0.726105
upperneck 39.5459 8.31439 -3.87114
head 17.5727 2.97536 0.0621863
rclavicle 3.18055e-015 -4.77083e-015
rhumerus -11.9657 35.2305 -93.8615
rradius 99.1732
rwrist -21.3346
rhand -37.6594 6.16861
rfingers 7.12502
rthumb -10.7107 -23.5384
lclavicle 3.18055e-015 -4.77083e-015
lhumerus 23.647 -20.6577 68.5335
lradius 28.7155
lwrist -12.9744
lhand -38.1747 83.089
lfingers 7.12502
lthumb -11.2077 -472.77
rfemur -25.6469 8.18926 19.9935
rtibia 8.72853
rfoot -3.43263 -2.01706
rtoes -18.4215
lfemur -31.1705 0.747368 -5.71478
ltibia 31.1585
lfoot -18.2997 11.2462
ltoes -20.6091
